<?xml version="1.0" encoding="UTF-8"?>
<svg id="Layer_1" data-name="Layer 1" xmlns="http://www.w3.org/2000/svg" viewBox="0 0 1546.49 1185.42">
  <defs>
    <style>
      .cls-1 {
        fill: none;
        stroke: #b2b2b2;
        stroke-linecap: round;
        stroke-miterlimit: 10;
        stroke-width: 51.46px;
      }

      .cls-2 {
        fill: #484848;
      }

      .cls-2, .cls-3 {
        stroke-width: 0px;
      }

      .cls-3 {
        fill: #fff;
      }
    </style>
  </defs>
  <rect class="cls-3" x="74.51" y="0" width="289.34" height="1185.42"/>
  <rect class="cls-3" x="445.5" y="0" width="289.34" height="1185.42"/>
  <rect class="cls-3" x="816.49" y="0" width="289.34" height="1185.42"/>
  <rect class="cls-3" x="1187.48" y="0" width="289.34" height="1185.42"/>
  <path class="cls-2" d="m82.67,519.05h273.01c4.5,0,8.16,3.66,8.16,8.16v658.2H74.51v-658.2c0-4.5,3.66-8.16,8.16-8.16Z"/>
  <path class="cls-2" d="m453.66,263.88h273.01c4.5,0,8.16,3.66,8.16,8.16v913.38h-289.34V272.04c0-4.5,3.66-8.16,8.16-8.16Z"/>
  <path class="cls-2" d="m824.65,124.41h273.01c4.5,0,8.16,3.66,8.16,8.16v1052.84h-289.34V132.58c0-4.5,3.66-8.16,8.16-8.16Z"/>
  <path class="cls-2" d="m1195.64,384.69h273.01c4.5,0,8.16,3.66,8.16,8.16v792.56h-289.34V392.86c0-4.5,3.66-8.16,8.16-8.16Z"/>
  <path class="cls-1" d="m31.09,985.82l177.3-197.37c4.92-6.89,14.33-8.83,21.57-4.44l163.17,90.66c8.25,5,19,1.73,23.07-7.01l160.34-360.91c5.02-10.77,19.54-12.65,27.13-3.51l158.37,196.71c7.66,9.21,22.32,7.21,27.23-3.72l155.26-362.18c5.79-12.9,24.17-12.7,29.69.32l159.98,390.29c4.16,9.82,16.51,13.01,24.9,6.43l162.33-115.9c6.44-5.05,15.63-4.5,21.43,1.28l172.54,168.6"/>
  <circle class="cls-3" cx="404.67" cy="867.66" r="41.3"/>
  <circle class="cls-3" cx="775.66" cy="696.22" r="41.3"/>
  <circle class="cls-3" cx="1146.65" cy="724.65" r="41.3"/>
</svg>