<svg xmlns="http://www.w3.org/2000/svg" height="147.5" width="252" viewBox="0 0 252 149.5"><g transform="translate(.88732 1.1127)"><path fill="#330072" d="m177.6 33.6c-6.2-6.9-16.7-9.8-31.2-8.5 0 0-7.5 0.7-16.3 1.4l5.2-26.5-112.5 10s17.5 18.8 20.7 22.1c-1.3 6.7-8.2 41.9-9 46-4.2 3.8-34.5 30.5-34.5 30.5l91.4-8.2c-7.1 6.3-32.9 29.1-32.9 29.1l76.4-6.8s5-25.6 5.5-27.9c0.6 0 1.9-0.2 1.9-0.2 5.1-0.4 9.9-1.6 14.3-3.4-1.5 8.4-2.9 16.7-2.9 16.7-0.5 2.9-0.8 5.8-0.8 8.5 0 8.5 2.5 15.6 7.5 21.1 10.3 11.4 26.5 10.2 31.8 9.9 24.4-1.7 39.9-15 43.7-37.4 0 0 3.4-19.5 5.2-30.2 1.4-0.1 2.9-0.2 2.9-0.2l6-34.8-66.4 4.7c-0.2-6.4-2.2-11.7-6-15.9z"/><path fill="#fff" d="m194.9 74.2c1.3-0.1 2.7-0.2 2.7-0.2l2.9-16.9-26.6 1.9c0.1-0.5 0.2-0.9 0.3-1.4 3.4-17.7-5.6-25.7-26.9-23.8l-28 2.5-2.7 0.2c0.9-4.4 1.6-8.1 1.9-9.9 1.2-0.1 2.7-0.2 2.7-0.2l3.2-16.6-7.9 0.7-24.5 2.2-3.2 16.6s1.5-0.1 2.7-0.2c-0.7 3.4-1.1 5.8-2 10.5-5 0.4-7.4 0.7-12.4 1.1 0.9-4.7 1.4-7.1 2-10.5 1.2-0.1 2.7-0.3 2.7-0.3l3.2-16.6-43.7 3.9 11.2 11.9 0.3 0.3c-0.6 3-9.8 50.3-10.4 53.3l-0.4 0.4-16.1 14.4 19.1-1.7 24.5-2.2 3.2-16.6s-1.5 0.1-2.7 0.2c0.7-3.8 1.4-6.9 2.4-12.2 5-0.4 7.4-0.7 12.4-1.1-1 5.2-1.6 8.4-2.4 12.2-1.2 0.1-2.7 0.2-2.7 0.2l-3.3 16.7 27.2-2.6c-1.3 6.9-2.4 12.3-2.6 13.2l-0.4 0.4-16.2 14.3 43.1-3.8 3.2-16.6s-1 0.1-2.2 0.2c0.7-3.6 1.2-6.4 2.2-11.3 5.2-0.5 10.7-0.9 10.7-0.9 8.7-0.8 16.3-4.1 22-9.3 1.7-0.2 3.8-0.4 4.5-0.5-2 11.4-5.7 33.2-5.7 33.2-0.4 2.5-0.6 4.8-0.6 7 0 6.3 1.7 11.4 5.2 15.2 6.7 7.4 17.3 7.5 24.7 7 20.5-1.5 32.5-11.6 35.7-30.1 0 0 4.8-27.8 6.3-37 1.5-0.1 2.9-0.2 2.9-0.2l2.9-16.9-9.8 0.7-22.7 1.6-2.8 17s1.6-0.1 2.7-0.2c-1.9 11-5.4 31.5-5.4 31.5-1.3 7.7-3 8.7-9.2 9.1-1.8 0.1-2.4 0.2-2.8 0-0.4-0.3-0.7-0.8-0.7-1.4 0-0.8 0.1-1.2 0.4-3.1-0.1 0 4.4-26.4 5.9-35.3z"/><path fill="#330072" d="m115.1 18.199-16.6 1.5-0.301 1.301c1.7-0.2 2.5012 0.99922 2.2012 2.6992l-4.5 22.801-28.099 2.5 4.299-22.9c0.3-1.7 1.7008-3.0992 3.3008-3.1992l0.29883-1.3008-16.6 1.5s2.2004 2.3 1.9004 4l-11 56.5c-0.4 1.7-3.5996 4.5-3.5996 4.5l16.6-1.5 0.301-1.299c-1.6 0.2-2.4016-1.0012-2.1016-2.7012l4.801-24.5 28.301-2.401-4.801 24.5c-0.3 1.7-1.7008 3.1012-3.3008 3.2012l-0.29883 1.2988 16.6-1.5 0.19922-1.2988c-1.7 0.1-2.4992-1.0012-2.1992-2.7012l11-56.5c0.3-1.7 1.7008-2.9992 3.3008-3.1992l0.29883-1.3008zm36.357 23.039c-1.7641-0.01406-3.6828 0.07422-5.7578 0.26172l-28 2.5-0.29883 1.3008c1.7-0.2 2.4992 0.99922 2.1992 2.6992l-11 56.5c-0.4 1.7-3.6 4.5-3.6 4.5l16.7-1.4 0.3-1.3c-1.7 0.2-2.4992-1.0012-2.1992-2.7012l4.6-23.7 18.6-1.701c12.3-1.1 21.001-8.1984 23.301-19.898 2.275-11.812-2.4953-16.964-14.844-17.062zm78.74 21.461-16.7 1.201-0.2 1.299c1.6-0.1 2.5 1.101 2.2 2.801l-6.5996 38.199c-1.8 10.7-6.0008 14.8-16.301 15.5s-13.199-2.9-11.299-13.5l6.6-38.2c0.3-1.7 1.5992-3.0992 3.1992-3.1992l0.2-1.301-16.7 1.199-0.2 1.301c1.6-0.1 2.7004 1.1008 2.4004 2.8008l-6.9004 39.898c-3.1 17.9 7.4996 21.201 21.1 20.201s25.599-5.9008 28.699-23.801l6.9004-39.9c0.3-1.701 1.8-3.1 3.4-3.2l0.19922-1.3008z"/><path fill="#fff" d="m149.05 50.303c-0.72618-0.01133-1.5102 0.02266-2.3477 0.09766l-16.799 1.5-3.7012 18.799 16-1.3984c7.7-0.7 11.702-3.1008 13.102-10.301 1.1375-6.3-1.1707-8.618-6.2539-8.6973zm-2.3223 7.7227c0.375 0 0.62539 0.02422 0.77539 0.07422 0 0.3 0.00078 0.79961-0.19922 1.5996-0.11 0.599-0.21 1-0.31 1.3-0.5 0.2-1.5004 0.39961-3.4004 0.59961 0 0-4.0996 0.40117-8.0996 0.70117 0.3-1.7 0.29922-1.8004 0.69922-3.4004l9-0.80078c0.65-0.05 1.1504-0.07422 1.5254-0.07422z"/></g></svg>
